<?xml version="1.0" encoding="UTF-8"?>
<svg width="18px" height="16px" viewBox="0 0 18 16" version="1.1" xmlns="http://www.w3.org/2000/svg" xmlns:xlink="http://www.w3.org/1999/xlink">
    <!-- Generator: sketchtool 54 (76480) - https://sketchapp.com -->
    <title>8A61DCE0-1F61-4D62-9182-B848F29C3A14</title>
    <desc>Created with sketchtool.</desc>
    <g id="Page-1" stroke="none" stroke-width="1" fill="none" fill-rule="evenodd">
        <g id="Main-site" transform="translate(-1133.000000, -34.000000)">
            <g id="Header">
                <g id="Group-4" transform="translate(1126.000000, 24.000000)">
                    <g id="Group-3">
                        <rect id="Rectangle" x="0" y="0" width="32" height="32"></rect>
                        <g id="Group-5" transform="translate(8.000000, 11.000000)" stroke="#AEAEAE" stroke-linecap="round" stroke-linejoin="round">
                            <path d="M1.6,3 L14.4,3 C15.2832,3 16,3.704 16,4.57142857 L16,12.4285714 C16,13.2967857 15.2832,14 14.4,14 L1.6,14 C0.7168,14 0,13.2967857 0,12.4285714 L0,4.57142857 C0,3.704 0.7168,3 1.6,3 Z" id="Stroke-1"></path>
                            <path d="M11,3 L11,1.75746924 C11,0.787346221 10.328,0 9.5,0 L6.5,0 C5.672,0 5,0.787346221 5,1.75746924 L5,3" id="Stroke-3"></path>
                        </g>
                    </g>
                </g>
            </g>
        </g>
    </g>
</svg>