<?xml version="1.0" encoding="UTF-8"?>
<svg width="52px" height="52px" viewBox="0 0 52 52" version="1.1" xmlns="http://www.w3.org/2000/svg" xmlns:xlink="http://www.w3.org/1999/xlink">
    <!-- Generator: sketchtool 54 (76480) - https://sketchapp.com -->
    <title>E9DFDC8E-E129-4947-8C69-2647F5288775</title>
    <desc>Created with sketchtool.</desc>
    <g id="Page-1" stroke="none" stroke-width="1" fill="none" fill-rule="evenodd">
        <g id="benefits" transform="translate(-782.000000, -1305.000000)">
            <g id="Group-58-Copy-3" transform="translate(728.000000, 1297.000000)">
                <g id="Group-57" transform="translate(43.000000, 0.000000)">
                    <rect id="Rectangle-Copy-24" opacity="0.414806548" x="0.655" y="0" width="72" height="72"></rect>
                    <g id="noun_savings_892646_000000-copy" transform="translate(11.655000, 9.000000)" fill="#0F4C97" stroke="#0F4C97" stroke-width="0.2">
                        <path d="M49.8497214,27.9668524 C49.3347972,27.4553048 48.6527338,27.1716745 47.9233986,27.1716745 L47.5773021,27.1716745 C45.9970759,18.0887503 36.7554538,11.3288938 25.7107531,11.3288938 C23.1293793,11.3288938 20.6104717,11.7104441 18.2114317,12.438091 C17.1883366,11.7222621 15.9744662,11.3288938 14.6981297,11.3288938 L13.8404855,11.3288938 L13.8404855,13.2383338 C13.8084083,13.2045683 13.7847724,13.1674262 13.7526952,13.135349 C12.5877848,11.9704386 11.0379476,11.3272055 9.39019034,11.3272055 L8.52916966,11.3272055 L8.52916966,18.2069297 C6.94725517,19.8445572 5.69961931,21.703349 4.85716966,23.7208386 L0,23.7208386 L0,36.0655117 L4.86054621,36.0655117 C6.26181517,39.4099862 8.74526897,42.3171972 12.0863669,44.5136441 L12.0863669,46.5665876 C12.0863669,47.5576055 12.4729821,48.4945986 13.1786814,49.2053628 C13.8810041,49.904309 14.8179972,50.2943007 15.8123917,50.2943007 C16.8084745,50.2943007 17.7437793,49.9076855 18.4477903,49.2036745 C18.8816772,48.7714759 19.1956966,48.2497986 19.3729655,47.6791614 C23.4653462,48.7090097 27.9308359,48.7123862 32.038411,47.6825379 C32.2139917,48.2497986 32.5296993,48.7731641 32.9618979,49.207051 C33.6642207,49.9059972 34.6012138,50.295989 35.6006731,50.295989 C36.5933793,50.295989 37.5303724,49.9093738 38.2326952,49.207051 C38.9383945,48.4979752 39.3266979,47.5592938 39.3266979,46.5682759 L39.3266979,44.5237738 C43.7938759,41.5895503 46.7584883,37.3047062 47.5806786,32.6146759 L47.9301517,32.6146759 C48.6561103,32.6146759 49.3381738,32.3310455 49.8530979,31.8144331 C50.3646455,31.299509 50.6482759,30.6157572 50.6482759,29.8914869 C50.6482759,29.1672166 50.3646455,28.4851531 49.8497214,27.9668524 Z M12.5354483,14.3559724 C12.6637572,14.4842814 12.7464828,14.653109 12.8612855,14.7983007 C11.9293572,15.3554317 11.0615834,15.9767172 10.251211,16.6435862 L10.251211,13.1336607 C11.1122317,13.3008 11.9023448,13.7211807 12.5354483,14.3559724 Z M48.6341628,30.6005628 C48.4467641,30.7896497 48.1918345,30.8943228 47.9284634,30.8943228 L46.0781131,30.8943228 L45.9818814,31.6489821 C45.4078676,36.2545986 42.4989683,40.5090538 38.0081545,43.3234097 L37.6029683,43.5732745 L37.6029683,46.563211 C37.6029683,47.0967062 37.3953103,47.603189 37.0086952,47.9847393 C36.6322097,48.3646014 36.1307917,48.5722593 35.59392,48.5722593 C35.0570483,48.5722593 34.5522538,48.3646014 34.1757683,47.9881159 C33.8026593,47.6116303 33.5916248,47.1152772 33.5882483,46.5902234 L33.5747421,45.4557021 L32.4841159,45.7730979 C30.3045517,46.4095779 28.0253793,46.7303503 25.7073766,46.7303503 C23.3792441,46.7303503 21.0950069,46.4078897 18.917131,45.7680331 L17.8265048,45.448949 L17.8129986,46.5868469 C17.8079338,47.1152772 17.5985876,47.6116303 17.2237903,47.9847393 C16.8456166,48.3646014 16.3425103,48.5722593 15.8056386,48.5722593 C15.2687669,48.5722593 14.7656607,48.3646014 14.3891752,47.9881159 C14.0076248,47.603189 13.7982786,47.0983945 13.7982786,46.563211 L13.7982786,43.5665214 L13.396469,43.3166566 C9.98446345,41.1725462 7.51113931,38.2653352 6.23986759,34.9022897 L6.0288331,34.3485352 L1.7136,34.3485352 L1.7136,25.4462566 L6.03220966,25.4462566 L6.24324414,24.8891255 C7.56009931,21.3859531 10.2377048,18.3538097 13.8354207,16.2232055 L13.8354207,18.5648441 L15.5574621,18.5648441 L15.5574621,13.135349 C16.4184828,13.3024883 17.2102841,13.7211807 17.8433876,14.3542841 C18.684149,15.1950455 19.1450483,16.3126841 19.1450483,17.4995421 L19.1450483,18.5614676 L20.8670897,18.5614676 L20.8670897,18.5614676 L20.8670897,17.4995421 C20.8670897,16.1522979 20.4180083,14.886091 19.6295834,13.8275421 C21.5896717,13.319371 23.6257324,13.0492469 25.7124414,13.0492469 C36.1932579,13.0492469 44.9081379,19.537291 45.9818814,28.1390566 L46.0747366,28.8920276 L47.9250869,28.8920276 C48.1918345,28.8920276 48.4467641,28.9967007 48.6341628,29.182411 C48.8215614,29.3731862 48.9279228,29.6247393 48.9279228,29.8897986 C48.9279228,30.1548579 48.8215614,30.4114759 48.6341628,30.6005628 Z" id="Shape" fill-rule="nonzero"></path>
                        <path d="M13.935029,21.8130869 C12.4071393,21.8130869 11.16288,23.0556579 11.16288,24.5852359 L12.8849214,24.5852359 C12.8849214,24.004469 13.3559503,23.53344 13.9367172,23.53344 C14.5174841,23.53344 14.9885131,24.004469 14.9885131,24.5852359 L16.7105545,24.5852359 C16.7071779,23.0556579 15.4646069,21.8130869 13.935029,21.8130869 Z" id="Path"></path>
                        <path d="M27.7524414,8.22190345 C30.0181076,8.22190345 31.8617048,6.37661793 31.8617048,4.11095172 C31.8617048,1.84528552 30.0181076,0 27.7524414,0 C25.4867752,0 23.6414897,1.84359724 23.6414897,4.11264 C23.6414897,6.37661793 25.4867752,8.22190345 27.7524414,8.22190345 Z M27.7524414,1.72204138 C29.0692966,1.72204138 30.1413517,2.79578483 30.1413517,4.11264 C30.1413517,5.43118345 29.0692966,6.50323862 27.7524414,6.50323862 C26.4355862,6.50323862 25.3618428,5.43118345 25.3618428,4.11264 C25.3618428,2.79409655 26.4355862,1.72204138 27.7524414,1.72204138 Z" id="Shape" fill-rule="nonzero"></path>
                    </g>
                </g>
            </g>
        </g>
    </g>
</svg>