<?xml version="1.0" encoding="UTF-8"?>
<svg width="50px" height="50px" viewBox="0 0 50 50" version="1.1" xmlns="http://www.w3.org/2000/svg" xmlns:xlink="http://www.w3.org/1999/xlink">
    <!-- Generator: sketchtool 54 (76480) - https://sketchapp.com -->
    <title>4D84F8ED-7C31-4DF8-A876-3D8BF47033D1</title>
    <desc>Created with sketchtool.</desc>
    <g id="Page-1" stroke="none" stroke-width="1" fill="none" fill-rule="evenodd">
        <g id="benefits" transform="translate(-567.000000, -937.000000)">
            <g id="Group-59-Copy-2" transform="translate(512.000000, 927.000000)">
                <g id="Group-56" transform="translate(44.000000, 0.000000)">
                    <rect id="Rectangle-Copy-23" opacity="0.414806548" x="0" y="0" width="72" height="72"></rect>
                    <g id="Group-64" transform="translate(12.000000, 10.000000)">
                        <g id="noun_Running_380700_000000-Copy">
                            <path d="M43.9821429,14.210119 C43.4404762,14.210119 42.9059524,14.3065476 42.3970238,14.4928571 L38.9880952,15.7321429 L37.7607143,15.1041667 C37.7208333,14.8 37.6583333,14.5017857 37.5761905,14.210119 C40.0440476,13.4892857 42.6255952,11.3208333 43.1333333,8.69166667 C43.8607143,4.89761905 41.3690476,1.21845238 37.5761905,0.489880952 C37.1386905,0.405357143 36.6910714,0.3625 36.2488095,0.3625 C34.902381,0.3625 33.6357143,0.751785714 32.5535714,1.42797619 C32.5107143,1.42142857 32.4654762,1.41488095 32.4184524,1.41488095 L26.1803571,1.41488095 C25.5642857,1.41488095 25.0636905,1.91488095 25.0636905,2.53095238 C25.0636905,3.14940476 25.5630952,3.64940476 26.1803571,3.64940476 L30.3238095,3.64940476 C30.1333333,3.95416667 29.964881,4.275 29.8220238,4.61071429 C29.6875,4.55416667 29.5416667,4.52321429 29.3880952,4.52321429 L21.3428571,4.52321429 C20.725,4.52321429 20.2255952,5.025 20.2255952,5.64047619 C20.2255952,6.25654762 20.7255952,6.75654762 21.3428571,6.75654762 L29.2833333,6.75654762 C29.197619,7.70357143 29.2970238,8.64702381 29.5904762,9.53928571 L24.9291667,8.70595238 C24.6815476,8.66190476 24.4297619,8.64047619 24.1738095,8.64047619 C24.089881,8.64047619 24.0089286,8.64345238 23.9285714,8.64642857 C23.864881,8.64345238 23.797619,8.64345238 23.7327381,8.64345238 C22.7357143,8.64345238 21.7886905,8.95357143 20.9970238,9.54404762 L15.4547619,13.6392857 C14.4630952,14.375 13.8196429,15.4482143 13.6410714,16.6672619 C13.6077381,16.8940476 13.5964286,17.1220238 13.5964286,17.3464286 L7.64880952,17.3464286 C7.0327381,17.3464286 6.5327381,17.8482143 6.5327381,18.4636905 C6.5327381,19.0821429 7.0327381,19.5821429 7.64880952,19.5821429 L14.1809524,19.5821429 C14.2767857,19.7529762 14.3809524,19.9214286 14.4994048,20.0821429 C15.3642857,21.247619 16.7458333,21.9404762 18.1964286,21.9404762 C19.189881,21.9404762 20.1386905,21.6267857 20.9386905,21.0339286 L23.1321429,19.4136905 L21.5291667,22.6636905 C21.3690476,22.9970238 21.2386905,23.3363095 21.1386905,23.6875 C20.4875,24.7339286 20.2541667,25.9755952 20.4857143,27.2005952 C20.6238095,27.935119 20.9220238,28.6178571 21.3535714,29.202381 L19.0404762,33.4994048 L12.1547619,34.0839286 C10.8232143,34.2071429 9.63869048,34.8345238 8.79821429,35.8470238 C7.97738095,36.8363095 7.58571429,38.0827381 7.68095238,39.3595238 L2.78035714,39.3595238 C2.16369048,39.3595238 1.66309524,39.8595238 1.66309524,40.477381 C1.66309524,41.0946429 2.16369048,41.5940476 2.78035714,41.5940476 L8.39761905,41.5940476 C9.26666667,43.0047619 10.8214286,43.925 12.5904762,43.925 C12.7434524,43.925 12.9011905,43.9184524 13.0559524,43.9041667 L22.0904762,43.1375 C22.3184524,43.1166667 22.514881,43.0785714 22.685119,43.0410714 C24.3011905,42.860119 25.7095238,41.9196429 26.4809524,40.4809524 L29.4083333,35.0482143 L32.9184524,37.4464286 L34.2922619,41.2529762 C34.2803571,41.2529762 34.272619,41.2488095 34.260119,41.2488095 L28.6285714,41.2488095 C28.0095238,41.2488095 27.510119,41.7505952 27.510119,42.3666667 C27.510119,42.9827381 28.0095238,43.4833333 28.6285714,43.4833333 L34.2613095,43.4833333 C34.5446429,43.4833333 34.7988095,43.3761905 34.9952381,43.2029762 L35.3732143,44.2517857 L31.3041667,44.2517857 C30.6880952,44.2517857 30.1880952,44.7535714 30.1880952,45.3690476 C30.1880952,45.9875 30.6875,46.4869048 31.3041667,46.4869048 L36.1833333,46.4869048 C36.9142857,48.372619 38.7535714,49.6375 40.7785714,49.6375 C41.3779762,49.6375 41.9654762,49.5297619 42.527381,49.3166667 C43.7589286,48.8494048 44.7363095,47.927381 45.2755952,46.7267857 C45.810119,45.5315476 45.8535714,44.2017857 45.3934524,42.9755952 L41.7309524,32.814881 C41.7255952,32.802381 41.7190476,32.7880952 41.714881,32.7767857 C41.4625,32.1119048 41.0559524,31.4988095 40.5291667,30.9934524 C40.2142857,30.5869048 39.8446429,30.2386905 39.4267857,29.9529762 L34.0428571,26.2720238 L34.7416667,24.8529762 C35.5321429,25.4488095 36.4994048,25.7767857 37.5059524,25.7767857 C38.0434524,25.7767857 38.5744048,25.6827381 39.0815476,25.4964286 L45.5595238,23.1386905 C47.9494048,22.2625 49.1761905,19.6136905 48.3029762,17.2321429 C47.6410714,15.4220238 45.9035714,14.210119 43.9821429,14.210119 Z M37.1214286,2.85892857 C39.6125,3.33690476 41.2428571,5.74464286 40.7625,8.23571429 C40.3416667,10.4327381 38.4166667,11.9625 36.2589286,11.9625 C35.9714286,11.9625 35.6791667,11.9363095 35.3880952,11.8791667 C32.8952381,11.3994048 31.2654762,8.99285714 31.7446429,6.50297619 C32.1678571,4.30416667 34.089881,2.775 36.2482143,2.775 C36.5357143,2.775 36.8267857,2.80238095 37.1214286,2.85892857 Z M24.3559524,39.3380952 C23.9255952,40.1369048 23.1303571,40.602381 22.2875,40.6535714 C22.1571429,40.6892857 22.0255952,40.7196429 21.885119,40.7309524 L12.8291667,41.5017857 C12.75,41.510119 12.6690476,41.5130952 12.5916667,41.5130952 C11.3053571,41.5130952 10.2095238,40.5345238 10.0875,39.2303571 C9.95714286,37.8428571 10.9761905,36.6154762 12.3607143,36.4880952 L20.5464286,35.7934524 L23.0404762,31.1636905 L27.3559524,33.7785714 L24.3559524,39.3380952 Z M44.7380952,20.8702381 L38.252381,23.2279762 C38.0059524,23.3178571 37.7541667,23.3613095 37.5065476,23.3613095 C36.8630952,23.3613095 36.2511905,23.0767857 35.8357143,22.585119 C35.7029762,22.4833333 35.5809524,22.3672619 35.4732143,22.2333333 L34.160119,20.5785714 L30.9535714,27.0779762 L38.0642857,31.9416667 C38.3363095,32.1267857 38.552381,32.3565476 38.7255952,32.610119 C39.0404762,32.8761905 39.302381,33.2172619 39.4577381,33.6297619 L43.1291667,43.8071429 C43.6232143,45.1095238 42.9684524,46.5636905 41.6684524,47.0565476 C41.3732143,47.1684524 41.072619,47.2220238 40.7755952,47.2220238 C39.7589286,47.2220238 38.8017857,46.6011905 38.4208333,45.5940476 L34.9208333,35.8940476 L28.5541667,31.539881 L24.3714286,28.6797619 L23.9089286,28.3625 C22.7595238,27.5797619 22.4642857,26.0125 23.2482143,24.8625 C23.2845238,24.8095238 23.3303571,24.7690476 23.3684524,24.7196429 C23.4303571,24.3839286 23.5357143,24.0505952 23.6904762,23.727381 L27.4714286,16.0619048 L24.3589286,15.5041667 L19.4994048,19.0928571 C19.1065476,19.385119 18.647619,19.5255952 18.1940476,19.5255952 C17.5238095,19.5255952 16.8642857,19.2202381 16.435119,18.6422619 C15.7130952,17.6708333 15.9136905,16.297619 16.8839286,15.577381 L22.4333333,11.4785714 C22.822619,11.1892857 23.2785714,11.0553571 23.7291667,11.0553571 C23.7958333,11.0553571 23.8642857,11.0559524 23.9291667,11.064881 C24.010119,11.0571429 24.0892857,11.0529762 24.1684524,11.0529762 C24.2779762,11.0529762 24.3869048,11.0607143 24.497619,11.0803571 L30.4845238,12.1505952 C30.9767857,11.9410714 31.5119048,11.8309524 32.0535714,11.8309524 C32.6315476,11.8309524 33.2190476,11.9565476 33.7755952,12.2244048 C35.2279762,12.9232143 36.0636905,14.3863095 36.0369048,15.8994048 L38.175,18.5934524 L43.222619,16.7583333 C43.472619,16.6666667 43.7285714,16.6232143 43.9785714,16.6232143 C44.8714286,16.6232143 45.7107143,17.1720238 46.0375,18.0613095 C46.4541667,19.1940476 45.8708333,20.4529762 44.7380952,20.8702381 Z" id="Shape" stroke="#FFFFFF" stroke-width="0.5" fill="#0F4C97" fill-rule="nonzero"></path>
                            <path d="M0.5,37.5 L8.5,37.5" id="Line-3" stroke="#0F4C97" stroke-width="1.7" stroke-linecap="round"></path>
                            <path d="M11,21 L18,21" id="Line-3-Copy" stroke="#0F4C97" stroke-width="1.7" stroke-linecap="round"></path>
                        </g>
                        <path d="M29.4739176,10.5496724 C34.583747,12.8896925 37.7493523,15.2308146 38.9707336,17.5730387" id="Path-6" stroke="#0F4C97" stroke-width="2"></path>
                    </g>
                </g>
            </g>
        </g>
    </g>
</svg>