<?xml version="1.0" encoding="UTF-8"?>
<svg width="53px" height="48px" viewBox="0 0 53 48" version="1.1" xmlns="http://www.w3.org/2000/svg" xmlns:xlink="http://www.w3.org/1999/xlink">
    <!-- Generator: sketchtool 54 (76480) - https://sketchapp.com -->
    <title>E36FEE05-0F44-4CF6-89BA-FC6320EB8450</title>
    <desc>Created with sketchtool.</desc>
    <g id="Page-1" stroke="none" stroke-width="1" fill="none" fill-rule="evenodd">
        <g id="benefits" transform="translate(-350.000000, -570.000000)">
            <g id="Group-60" transform="translate(296.000000, 557.000000)">
                <g id="Group-19" transform="translate(44.000000, 0.000000)">
                    <rect id="Rectangle" opacity="0.414806548" x="0" y="0" width="72" height="72"></rect>
                    <g id="noun_study_1345101_000000-copy" transform="translate(10.000000, 13.000000)">
                        <path d="M28.0847927,10.5824512 C26.4392195,11.9517561 25.4252805,13.8787561 25.2304024,16.010378 C24.8274634,20.4100366 28.079061,24.3179146 32.4787195,24.7214268 C32.7280488,24.7443537 32.9762317,24.7558171 33.2238415,24.7558171 C35.0906585,24.7558171 36.8823902,24.1104268 38.3348049,22.9016098 C39.980378,21.532878 40.9943171,19.6053049 41.1891951,17.4736829 C41.3840732,15.342061 40.7381098,13.2625976 39.3688049,11.6170244 C37.9995,9.97145122 36.0719268,8.95808537 33.9403049,8.76320732 C31.8109756,8.56489024 29.7297927,9.21371951 28.0847927,10.5824512 Z M51.7235,35.8019634 L43.4704146,26.4604268 C43.2463049,26.2030732 42.9138659,26.1062073 42.6049268,26.172122 L40.5317683,23.6805488 C42.0896463,22.0424268 43.0514268,19.948061 43.2612073,17.6628293 C43.5076707,14.9780976 42.6931951,12.3581341 40.9685244,10.2855488 C39.6565366,8.70932927 37.9364512,7.59623171 36.0094512,7.03337805 L36.0094512,0.404085366 L4.86335366,0.404085366 C2.44342683,0.404085366 0.475158537,2.37292683 0.475158537,4.79285366 C0.475158537,4.79285366 0.475158537,42.2535732 0.475158537,42.3790976 C0.475158537,44.7990244 2.444,46.7672927 4.86335366,46.7672927 L35.5469024,46.7701585 C35.6196951,46.7701585 35.6924878,46.7546829 35.7612683,46.7265976 C35.9309268,46.6578171 36.0661951,46.4915976 36.1034512,46.3139146 C36.1389878,46.1425366 36.0862561,45.9350488 35.9658902,45.804939 C35.1462561,44.9297073 34.6630732,43.7879512 34.6051829,42.5911707 C34.5386951,41.1972195 34.9685732,39.9052927 35.8134268,38.9458049 C35.9211829,38.8139756 36.0100244,38.7056463 36.0100244,38.4786707 L36.0100244,26.4564146 C36.0100244,26.4506829 36.0065854,26.4455244 36.0065854,26.4397927 C36.747122,26.2265732 37.462439,25.9308171 38.1399268,25.5496585 L40.2744146,28.1145976 C40.1609268,28.4006098 40.1953171,28.7341951 40.3959268,28.9926951 C40.3959268,28.9926951 47.9560488,38.9085488 47.9577683,38.9114146 C48.1847439,39.204878 48.5120244,39.3888659 48.8805732,39.429561 C48.9315854,39.4352927 48.9825976,39.4381585 49.0330366,39.4381585 C49.3482805,39.4381585 49.6491951,39.3298293 49.8950854,39.1257805 L51.5716098,37.7369878 C51.8547561,37.5014146 52.0272805,37.170122 52.0565122,36.8027195 C52.0857439,36.4353171 51.9682439,36.0810976 51.7235,35.8019634 Z M1.6215,42.3790976 C1.6215,40.9232439 2.58614634,39.6892073 3.90959756,39.2805366 L3.90959756,45.4770854 C2.58614634,45.0689878 1.6215,43.8349512 1.6215,42.3790976 Z M33.4599878,42.6461951 C33.5115732,43.7071341 33.8388537,44.7308171 34.3936829,45.6232439 L5.05593902,45.620378 L5.05593902,39.1366707 L34.2733171,39.1366707 C33.6852439,40.1620732 33.3992317,41.3714634 33.4599878,42.6461951 Z M5.05593902,37.9903293 L5.05593902,7.4137113 C5.05593902,7.09732106 4.79973171,6.84054057 4.48276829,6.84054057 C4.16580488,6.84054057 3.90959756,7.09732106 3.90959756,7.4137113 L3.90959756,38.0975122 C3.0120122,38.2975488 2.21989024,38.7738537 1.6215,39.4312805 L1.6215,4.79228049 C1.6215,3.00456098 3.07563415,1.54985366 4.86335366,1.54985366 L34.8631098,1.54985366 L34.8631098,6.79321951 C34.6206585,6.75309756 34.3782073,6.71240244 34.1311707,6.69004878 C31.4504512,6.44415854 28.8264756,7.25806098 26.7538902,8.98273171 C24.6813049,10.7074024 23.4042805,13.1359268 23.1583902,15.8206585 C22.650561,21.3626463 26.7470122,26.2856098 32.2895732,26.7940122 C32.6036707,26.8226707 32.916622,26.837 33.2284268,26.837 C33.7803902,26.837 34.326622,26.7882805 34.8642561,26.7000122 L34.8642561,37.9903293 L5.05593902,37.9903293 Z M39.6657073,24.5013293 C39.6771707,24.4915854 39.6869146,24.4806951 39.698378,24.4715244 L41.6546098,26.8226707 L41.0837317,27.2955366 L39.1103049,24.9249024 C39.2983049,24.7884878 39.4857317,24.6509268 39.6657073,24.5013293 Z M50.8396707,36.8543049 L49.1631463,38.2430976 C49.1041098,38.2923902 49.0416341,38.2964024 49.0066707,38.2900976 C48.974,38.2866585 48.9126707,38.2717561 48.8662439,38.2115732 L41.4476951,28.482 L42.7636951,27.3924024 L50.8625976,36.5585488 C50.9124634,36.6158659 50.9159024,36.6789146 50.9130366,36.7115854 C50.9107439,36.7442561 50.897561,36.8061585 50.8396707,36.8543049 Z" id="Shape" stroke="#0F4C97" stroke-width="0.5" fill="#0F4C97" fill-rule="nonzero"></path>
                        <circle id="Oval" fill="#FFFFFF" cx="33.2916667" cy="16.6458333" r="8.8125"></circle>
                        <circle id="Oval" stroke="#0F4C97" stroke-width="1.5" cx="33.2916667" cy="16.6458333" r="6.10416667"></circle>
                    </g>
                </g>
            </g>
        </g>
    </g>
</svg>