<?xml version="1.0" encoding="UTF-8"?>
<svg width="50px" height="50px" viewBox="0 0 50 50" version="1.1" xmlns="http://www.w3.org/2000/svg" xmlns:xlink="http://www.w3.org/1999/xlink">
    <!-- Generator: sketchtool 54 (76480) - https://sketchapp.com -->
    <title>2E5CB45A-33AA-483C-80AA-73974E580B09</title>
    <desc>Created with sketchtool.</desc>
    <g id="Page-1" stroke="none" stroke-width="1" fill="none" fill-rule="evenodd">
        <g id="benefits" transform="translate(-135.000000, -567.000000)">
            <g id="Group-61" transform="translate(80.000000, 557.000000)">
                <g id="Group-16" transform="translate(44.000000, 0.000000)">
                    <rect id="Rectangle-Copy-28" opacity="0.414806548" x="0" y="0" width="72" height="72"></rect>
                    <g id="noun_road-sign_1686198_000000" transform="translate(11.000000, 10.000000)" fill="#292929">
                        <path d="M49.1666667,6.66666667 L28.3333333,6.66666667 L28.3333333,5 C28.7935706,5 29.1666667,4.62690396 29.1666667,4.16666667 L29.1666667,0.833333333 C29.1666667,0.373096042 28.7935706,0 28.3333333,0 L21.6666667,0 C21.2064294,0 20.8333333,0.373096042 20.8333333,0.833333333 L20.8333333,4.16666667 C20.8333333,4.62690396 21.2064294,5 21.6666667,5 L21.6666667,6.66666667 L5.83333333,6.66666667 C5.61233766,6.66671386 5.40041061,6.75454219 5.24416667,6.91083333 L0.244166667,11.9108333 C-0.0811516153,12.2362499 -0.0811516153,12.7637501 0.244166667,13.0891667 L5.24416667,18.0891667 C5.40041061,18.2454578 5.61233766,18.3332861 5.83333333,18.3333333 L21.6666667,18.3333333 L21.6666667,21.6666667 L15.8333333,21.6666667 C15.373096,21.6666667 15,22.0397627 15,22.5 L15,32.5 C15,32.9602373 15.373096,33.3333333 15.8333333,33.3333333 L21.6666667,33.3333333 L21.6666667,49.1666667 C21.6666667,49.626904 22.0397627,50 22.5,50 L27.5,50 C27.9602373,50 28.3333333,49.626904 28.3333333,49.1666667 L28.3333333,33.3333333 L39.1666667,33.3333333 C39.3876623,33.3332861 39.5995894,33.2454578 39.7558333,33.0891667 L44.7558333,28.0891667 C45.0811516,27.7637501 45.0811516,27.2362499 44.7558333,26.9108333 L39.7558333,21.9108333 C39.5995894,21.7545422 39.3876623,21.6667139 39.1666667,21.6666667 L28.3333333,21.6666667 L28.3333333,18.3333333 L49.1666667,18.3333333 C49.626904,18.3333333 50,17.9602373 50,17.5 L50,7.5 C50,7.03976271 49.626904,6.66666667 49.1666667,6.66666667 Z M22.5,1.66666667 L27.5,1.66666667 L27.5,3.33333333 L22.5,3.33333333 L22.5,1.66666667 Z M23.3333333,5 L26.6666667,5 L26.6666667,6.66666667 L23.3333333,6.66666667 L23.3333333,5 Z M26.6666667,48.3333333 L23.3333333,48.3333333 L23.3333333,33.3333333 L26.6666667,33.3333333 L26.6666667,48.3333333 Z M42.9883333,27.5 L38.8216667,31.6666667 L16.6666667,31.6666667 L16.6666667,23.3333333 L38.8216667,23.3333333 L42.9883333,27.5 Z M26.6666667,21.6666667 L23.3333333,21.6666667 L23.3333333,18.3333333 L26.6666667,18.3333333 L26.6666667,21.6666667 Z M48.3333333,16.6666667 L6.17833333,16.6666667 L2.01166667,12.5 L6.17833333,8.33333333 L48.3333333,8.33333333 L48.3333333,16.6666667 Z" id="Shape" fill-rule="nonzero"></path>
                        <path d="M8.08916667,10.2441667 C7.76375012,9.91884838 7.23624988,9.91884838 6.91083333,10.2441667 L5.24416667,11.9108333 C4.91884838,12.2362499 4.91884838,12.7637501 5.24416667,13.0891667 L6.91083333,14.7558333 C7.23781574,15.0716435 7.75757065,15.067127 8.07901548,14.7456821 C8.40046031,14.4242373 8.40497684,13.9044824 8.08916667,13.5775 L7.01166667,12.5 L8.08916667,11.4225 C8.41448495,11.0970835 8.41448495,10.5695832 8.08916667,10.2441667 Z" id="Path"></path>
                        <path d="M36.9108333,29.7558333 C37.2362499,30.0811516 37.7637501,30.0811516 38.0891667,29.7558333 L39.7558333,28.0891667 C40.0811516,27.7637501 40.0811516,27.2362499 39.7558333,26.9108333 L38.0891667,25.2441667 C37.7621843,24.9283565 37.2424294,24.932873 36.9209845,25.2543179 C36.5995397,25.5757627 36.5950232,26.0955176 36.9108333,26.4225 L37.9883333,27.5 L36.9108333,28.5775 C36.5855151,28.9029165 36.5855151,29.4304168 36.9108333,29.7558333 Z" id="Path"></path>
                        <path d="M45.8333333,15 C46.2935706,15 46.6666667,14.626904 46.6666667,14.1666667 L46.6666667,10.8333333 C46.6666667,10.373096 46.2935706,10 45.8333333,10 C45.373096,10 45,10.373096 45,10.8333333 L45,14.1666667 C45,14.626904 45.373096,15 45.8333333,15 Z" id="Path"></path>
                        <path d="M19.1666667,25 C18.7064294,25 18.3333333,25.373096 18.3333333,25.8333333 L18.3333333,29.1666667 C18.3333333,29.626904 18.7064294,30 19.1666667,30 C19.626904,30 20,29.626904 20,29.1666667 L20,25.8333333 C20,25.373096 19.626904,25 19.1666667,25 Z" id="Path"></path>
                    </g>
                </g>
            </g>
        </g>
    </g>
</svg>